P2

16 14
255
 99 01 02 03 04 99 06 07 08 02 99 01 01 01 01 99
 10 11 12 13 14 15 16 17 18 12 11 11 11 11 11 11
 20 21 22 23 24 25 26 27 28 22 21 21 21 21 21 21
 30 31 32 33 34 35 36 37 38 32 31 31 31 31 31 31
 40 41 42 43 44 45 46 47 48 42 41 41 41 41 41 41
 99 51 52 53 54 99 56 57 58 52 99 51 51 51 51 99
 60 61 62 63 64 65 66 67 68 62 61 61 61 61 61 61
 70 71 72 73 74 75 76 77 78 72 71 71 71 71 71 71
 80 81 82 83 84 85 86 87 88 82 81 81 81 81 81 81
 20 21 22 23 24 25 26 27 28 80 21 21 21 21 21 21
 99 10 10 10 10 99 10 10 10 10 99 10 10 10 10 99
 11 11 11 11 11 11 11 11 11 11 11 11 11 11 11 11
 12 12 12 12 12 12 12 12 12 12 12 12 12 12 12 12
 13 13 13 13 13 13 13 13 13 13 13 13 13 18 13 13
